<svg xmlns="http://www.w3.org/2000/svg" width="24" height="24" viewBox="0 0 48 48"><g><path fill="#4285F4" d="M43.611 20.083H42V20H24v8h11.303C34.73 32.082 30.036 35 24 35c-6.627 0-12-5.373-12-12s5.373-12 12-12c2.761 0 5.287.98 7.285 2.593l6.849-6.849C34.583 4.527 29.627 2 24 2 12.954 2 4 10.954 4 22s8.954 20 20 20c11.045 0 19.799-7.969 19.799-19.799 0-1.326-.138-2.617-.377-3.868z"/><path fill="#34A853" d="M6.306 14.691l6.571 4.819C14.655 16.104 18.961 13 24 13c2.761 0 5.287.98 7.285 2.593l6.849-6.849C34.583 4.527 29.627 2 24 2 15.317 2 7.985 7.797 6.306 14.691z"/><path fill="#FBBC05" d="M24 44c5.797 0 10.654-1.924 14.205-5.217l-6.567-5.383C29.635 35.02 26.96 36 24 36c-6.012 0-11.09-4.06-12.872-9.523l-6.6 5.092C7.98 40.201 15.317 44 24 44z"/><path fill="#EA4335" d="M43.611 20.083H42V20H24v8h11.303c-1.377 3.68-5.377 8-11.303 8-6.012 0-11.09-4.06-12.872-9.523l-6.6 5.092C7.98 40.201 15.317 44 24 44c11.045 0 19.799-7.969 19.799-19.799 0-1.326-.138-2.617-.377-3.868z"/></g></svg>